<?xml version="1.0" standalone="no"?><!DOCTYPE svg PUBLIC "-//W3C//DTD SVG 1.1//EN" "http://www.w3.org/Graphics/SVG/1.1/DTD/svg11.dtd"><svg class="icon" width="200px" height="200.00px" viewBox="0 0 1024 1024" version="1.1" xmlns="http://www.w3.org/2000/svg"><path d="M896 512a384 384 0 1 0-384 384 384 384 0 0 0 384-384z m64 0A448 448 0 1 1 512 64a448 448 0 0 1 448 448z"  /><path d="M608 672a32 32 0 0 1 0 64h-192a32 32 0 0 1 0-64z"  /><path d="M480 448h-32a32 32 0 0 1 0-64h64a32 32 0 0 1 32 32v256a32 32 0 0 1-64 0zM544 320a32 32 0 1 1-32-32 32 32 0 0 1 32 32"  /></svg>