<svg id="图层_1" data-name="图层 1" xmlns="http://www.w3.org/2000/svg" viewBox="0 0 200 200"><defs><style>.cls-1{fill:#fff;}</style></defs><title>info</title><path class="cls-1" d="M175,100a75,75,0,1,0-75,75A75,75,0,0,0,175,100Zm12.5,0A87.5,87.5,0,1,1,100,12.5,87.51,87.51,0,0,1,187.5,100Z"/><path class="cls-1" d="M118.75,131.25a6.25,6.25,0,0,1,0,12.5H81.25a6.25,6.25,0,0,1,0-12.5Z"/><path class="cls-1" d="M93.75,87.5H87.5a6.25,6.25,0,0,1,0-12.5H100a6.25,6.25,0,0,1,6.25,6.25v50a6.25,6.25,0,0,1-12.5,0Zm12.5-25A6.25,6.25,0,1,1,100,56.25a6.25,6.25,0,0,1,6.25,6.25"/></svg>